<?xml version="1.0" standalone="no"?>
<!DOCTYPE svg PUBLIC "-//W3C//DTD SVG 20010904//EN"
 "http://www.w3.org/TR/2001/REC-SVG-20010904/DTD/svg10.dtd">
<svg version="1.0" xmlns="http://www.w3.org/2000/svg"
 width="260.000000pt" height="260.000000pt" viewBox="0 0 260.000000 260.000000"
 preserveAspectRatio="xMidYMid meet">
<metadata>
Created by potrace 1.11, written by Peter Selinger 2001-2013
</metadata>
<g transform="translate(0.000000,260.000000) scale(0.100000,-0.100000)"
fill="#000000" stroke="none">
<path d="M1290 2180 c0 -16 -4 -30 -10 -30 -5 0 -10 4 -10 9 0 5 -7 11 -15 14
-12 5 -12 2 -3 -21 7 -15 15 -31 20 -36 4 -6 8 -17 8 -25 0 -10 -3 -12 -8 -5
-4 6 -18 17 -31 24 -26 13 -25 10 9 -40 10 -14 21 -36 25 -49 l7 -24 -27 21
c-45 36 -49 25 -10 -28 35 -48 42 -76 12 -52 -7 6 -26 13 -42 16 l-29 5 33
-29 c32 -29 61 -85 61 -115 0 -9 -16 5 -36 32 -20 26 -52 63 -73 81 -73 66
-243 130 -296 112 -14 -5 -8 -9 23 -13 23 -4 42 -11 42 -15 0 -4 -14 -16 -31
-26 -41 -24 -33 -28 26 -11 68 21 86 18 43 -7 -39 -23 -64 -57 -31 -43 10 4
38 13 63 20 52 14 91 7 44 -8 -29 -10 -74 -44 -74 -58 0 -4 13 -1 29 7 16 8
54 17 83 19 38 4 46 3 27 -4 -43 -14 -68 -31 -79 -52 -11 -20 -10 -20 18 -5
37 19 90 26 117 15 20 -8 20 -8 0 -8 -11 -1 -37 -10 -58 -21 -21 -11 -41 -19
-45 -16 -14 9 -117 -16 -161 -39 -51 -26 -85 -55 -119 -99 -32 -42 -28 -67 4
-28 25 30 46 42 43 25 -1 -5 0 -21 1 -38 2 -27 4 -24 18 22 24 74 41 88 37 29
-4 -61 10 -67 24 -11 6 24 22 57 36 72 l25 28 -15 -37 c-16 -40 -20 -88 -7
-88 4 0 14 15 20 34 14 37 49 86 61 86 5 0 0 -18 -11 -40 -31 -62 -19 -80 19
-27 17 25 42 51 55 58 l23 12 -23 -26 c-17 -18 -23 -35 -21 -59 3 -27 -4 -44
-29 -75 -43 -54 -70 -121 -76 -186 -5 -64 8 -96 18 -43 l7 35 30 -32 30 -32
-17 40 c-9 22 -19 51 -22 65 -5 22 -2 20 28 -13 18 -21 34 -36 37 -34 2 2 -6
25 -17 51 -24 56 -27 95 -5 52 15 -29 46 -58 54 -50 2 2 -1 9 -7 17 -18 21
-32 96 -19 104 5 3 7 2 4 -4 -8 -12 29 -73 44 -73 7 0 8 7 4 18 -4 9 -9 40
-11 67 l-4 50 15 -39 c30 -78 56 -89 41 -16 -8 43 -7 52 9 70 10 11 28 20 41
20 22 0 22 -1 9 -50 -17 -63 -17 -61 3 -83 12 -14 17 -42 18 -120 1 -56 2
-105 3 -108 0 -3 15 -6 31 -6 l30 0 0 112 c0 91 3 115 16 126 12 10 14 23 9
58 -4 25 -12 52 -17 59 -8 9 -5 12 10 12 57 0 79 -38 58 -100 -8 -22 -10 -40
-6 -40 16 0 50 53 51 79 0 26 1 26 11 4 8 -16 7 -34 -4 -68 -9 -25 -13 -45 -9
-45 15 1 31 18 46 50 l16 35 -5 -38 c-3 -21 -12 -51 -20 -67 -8 -17 -11 -30
-7 -30 12 0 51 45 51 58 0 7 4 12 10 12 10 0 -15 -74 -33 -98 -21 -27 2 -21
32 9 18 17 34 30 36 27 2 -2 -5 -23 -16 -47 -24 -54 -16 -65 16 -26 l24 30 1
-25 c0 -14 5 -32 10 -40 16 -25 12 102 -5 151 -9 23 -33 66 -55 95 -22 29 -36
55 -31 59 13 7 -4 63 -26 88 -18 19 -17 20 4 8 25 -13 73 -72 73 -90 0 -7 5
-9 10 -6 13 8 5 50 -15 81 -8 13 -11 24 -6 24 14 0 49 -47 63 -86 6 -19 16
-34 21 -34 10 0 4 64 -9 94 -5 14 -4 17 5 11 18 -10 50 -84 51 -115 l1 -25 10
25 c6 14 8 40 5 58 -8 53 20 22 35 -39 10 -37 15 -46 20 -32 3 10 5 29 3 43
-4 23 -1 22 31 -14 40 -45 47 -28 10 26 -48 71 -161 129 -254 132 -28 0 -51 4
-51 8 0 4 -21 14 -47 22 -27 8 -39 15 -28 16 11 1 29 3 39 5 11 2 35 -3 54
-11 19 -8 38 -12 41 -8 7 7 -50 55 -59 49 -3 -2 -12 1 -20 6 -22 15 57 8 97
-8 46 -18 50 -16 23 11 -12 14 -36 28 -53 32 -19 4 -25 9 -17 14 15 9 66 -2
110 -23 43 -22 34 1 -13 32 -20 13 -36 26 -34 28 2 1 28 -4 58 -11 30 -8 55
-13 57 -11 4 3 -13 18 -43 40 -19 13 -17 14 23 21 52 8 56 23 5 18 -129 -13
-274 -98 -343 -203 -23 -34 -30 -39 -30 -23 0 37 20 74 58 111 20 19 29 32 19
28 -10 -4 -25 -7 -32 -7 -8 0 -21 -7 -29 -16 -11 -10 -16 -11 -16 -3 0 13 49
82 62 87 4 2 8 8 8 13 0 11 -30 0 -54 -20 -18 -15 -18 -15 -11 9 4 14 18 40
32 58 25 34 13 44 -19 15 -15 -13 -18 -13 -18 -2 0 8 6 23 13 34 23 34 28 55
11 48 -7 -3 -14 -9 -14 -14 0 -5 -4 -9 -10 -9 -5 0 -10 14 -10 30 0 17 -4 30
-10 30 -5 0 -10 -13 -10 -30z m-57 -388 c30 -27 18 -33 -23 -12 -21 11 -47 20
-57 21 -16 0 -16 1 2 8 24 10 54 3 78 -17z m207 8 c-14 -4 -40 -15 -58 -24
-35 -18 -43 -9 -14 17 19 17 59 26 82 18 9 -3 6 -7 -10 -11z m-251 -92 c-29
-10 -61 -25 -71 -35 -27 -24 -35 -7 -11 25 26 35 79 53 111 39 23 -11 21 -12
-29 -29z m299 0 c20 -20 30 -48 16 -48 -3 0 -18 9 -33 19 -14 10 -46 25 -71
31 l-45 13 30 12 c34 15 67 6 103 -27z"/>
<path d="M1177 1284 c-90 -21 -136 -65 -137 -132 0 -75 51 -116 160 -127 l50
-5 0 39 c0 37 -1 39 -41 45 -58 9 -79 23 -79 51 0 32 37 56 94 62 l44 5 0
-153 c0 -85 1 -162 1 -171 1 -13 9 -18 31 -18 33 0 33 0 31 84 l-1 48 54 -5
c64 -6 92 -19 101 -48 10 -29 -23 -71 -66 -86 -76 -28 -233 -8 -325 40 -27 14
-29 14 -51 -16 l-23 -30 21 -15 c32 -22 116 -52 163 -58 23 -3 46 -7 52 -9 7
-2 11 -47 12 -128 0 -114 -1 -127 -21 -148 -45 -49 -13 -129 53 -129 64 0 94
66 56 123 -23 33 -24 44 -23 158 l2 123 40 4 c65 5 130 30 163 63 55 54 55
138 -1 185 -39 33 -65 43 -130 50 -78 8 -77 7 -75 73 l2 60 30 -6 c17 -3 55
-15 85 -26 l53 -19 23 28 c27 34 23 39 -70 73 -73 28 -196 34 -278 15z"/>
</g>
</svg>
