<svg viewBox="0 0 65 65" xmlns="http://www.w3.org/2000/svg">
  <g fill="none" fill-rule="nonzero">
    <circle fill="#455D58" cx="32.5" cy="32.5" r="32.5"/>
    <g fill="#FFF">
      <path d="M30.954589 26.0013103c.57158263-.0003261 1.22587338-.0007573 2.0000008-.0013103 0 2.4023759-1.69428977 4.4090292-3.95314543 4.8902359L29.95458984 49h-4l.95314548-18.1097641c-2.25885566-.4812067-3.95314548-2.48786-3.95314548-4.8902359.77409618.000319 1.42839859.0006248 2.0000004.0009006.00048638.5518708.44801507.9990994.9999996.9990994.55167459 0 .9990106-.4467265.99999836-.9981699.69625839.0002698 1.30392202.0003884 2.00000381.0002756.00113626.5513166.44841514.9978943.99999783.9978943.55184793 0 .99929171-.4470073.99999916-.9986897zM26.95458984 16h2v10h-2V16zm4 0h1.99999996v10h-1.99999996V16zm-8 0h2v10h-2V16zM41 31h-1V16h1v15l1 18h-4l.9609019-17.2962348C37.6565637 30.8749612 37.0043945 28.3070394 37.0043945 24c0-5.33333333 1-8 3-8v15H41z"/>
    </g>
  </g>
</svg>
