<?xml version="1.0" encoding="UTF-8"?>
<svg viewBox="0 0 88 88" version="1.1" xmlns="http://www.w3.org/2000/svg" xmlns:xlink="http://www.w3.org/1999/xlink">
    <!-- Generator: Sketch 52 (66869) - http://www.bohemiancoding.com/sketch -->
    <title>Resort</title>
    <desc>Created with Sketch.</desc>
    <defs>
        <path d="M57.0327,59.1348 C56.1187,58.4388 54.7057,57.9718 52.7927,57.7328 C52.2447,57.6618 51.6677,57.6028 51.0627,57.5528 C50.9287,57.5418 50.8047,57.5328 50.6787,57.5248 L50.6787,53.4888 C51.2997,53.5598 51.9137,53.6658 52.5177,53.8198 C53.6577,54.1078 54.7967,54.5398 55.9357,55.1158 L57.4757,53.4078 C55.2537,51.9038 52.4967,51.1508 49.2067,51.1508 C47.5747,51.1508 46.1827,51.3368 45.0307,51.7098 C43.8767,52.0818 43.0017,52.6158 42.4037,53.3128 C41.8057,54.0088 41.5077,54.8348 41.5077,55.7908 C41.5077,56.7478 41.7637,57.4968 42.2777,58.0378 C42.7907,58.5788 43.5467,58.9758 44.5447,59.2298 C45.4147,59.4498 46.5627,59.6138 47.9567,59.7278 L47.9567,57.3458 C47.5877,57.3178 47.2677,57.2878 47.0027,57.2578 C46.4467,57.1948 45.9507,57.0848 45.5147,56.9308 C45.0657,56.7768 44.7307,56.5748 44.5127,56.3288 C44.2957,56.0828 44.1867,55.7908 44.1867,55.4528 C44.1867,55.0318 44.3687,54.6658 44.7347,54.3578 C45.0997,54.0478 45.6447,53.8088 46.3697,53.6398 C47.0187,53.4888 47.8027,53.4088 48.7057,53.3938 L48.7057,64.1228 C49.1617,64.1668 49.6237,64.1968 50.0927,64.1968 C50.2957,64.1968 50.4867,64.1898 50.6787,64.1828 L50.6787,59.9218 C51.7197,59.9968 52.5487,60.0748 53.1197,60.1568 C53.8997,60.2708 54.5187,60.4848 54.9757,60.8008 C55.4317,61.1178 55.6617,61.5998 55.6617,62.2458 C55.6617,62.7938 55.4467,63.2728 55.0177,63.6808 C54.5887,64.0888 53.9597,64.4018 53.1307,64.6188 C52.3007,64.8378 51.2877,64.9468 50.0927,64.9468 C48.6997,64.9468 47.3717,64.7668 46.1057,64.4078 C44.8407,64.0498 43.5957,63.4978 42.3727,62.7518 L40.9797,64.5868 C42.0767,65.4588 43.3777,66.1068 44.8827,66.5288 C46.0257,66.8488 47.3017,67.0458 48.7057,67.1228 L48.7057,75.5058 C47.9067,75.8788 47.3487,76.6838 47.3487,77.6238 C47.3487,78.9178 48.3977,79.9668 49.6917,79.9668 C50.9857,79.9668 52.0347,78.9178 52.0347,77.6238 C52.0347,76.6838 51.4767,75.8788 50.6787,75.5058 L50.6787,67.1438 C52.1977,67.1018 53.5187,66.9138 54.6177,66.5598 C55.8617,66.1588 56.8037,65.5788 57.4437,64.8198 C58.0837,64.0608 58.4037,63.1458 58.4037,62.0768 C58.4037,60.8118 57.9467,59.8308 57.0327,59.1348 M50.8139,36.8985 C50.9839,36.4885 51.1779,36.0865 51.3979,35.6915 C51.9889,34.8065 53.4779,34.3935 55.3239,34.9815 C53.8669,35.2435 52.3459,35.8465 50.8139,36.8985 M44.0599,34.9815 C45.9059,34.3935 47.3949,34.8065 47.9849,35.6915 C48.2059,36.0865 48.3989,36.4885 48.5689,36.8985 C47.0379,35.8465 45.5169,35.2435 44.0599,34.9815 M66.3829,40.8965 C66.2279,38.6405 61.7649,34.3385 56.1689,34.8635 C55.1249,33.7455 53.7389,33.5835 52.7099,33.7775 C52.7389,33.7435 52.7619,33.7085 52.7909,33.6745 C54.6439,32.3165 57.3399,33.4865 57.9999,34.1765 C57.9759,33.1695 56.2699,31.9485 54.3269,32.0985 C54.3919,32.0395 54.4599,31.9815 54.5279,31.9235 C56.0709,31.3555 58.6659,31.9895 59.6629,32.8085 C59.5739,32.1205 58.1269,30.7955 56.1259,30.6925 C56.2729,30.5925 56.4239,30.4975 56.5749,30.4015 L56.5769,30.4015 C57.9999,30.0035 60.5979,31.0815 61.4069,31.6335 C61.1709,30.8205 59.6659,29.7875 58.2069,29.4625 C58.2369,29.4465 58.2669,29.4315 58.2969,29.4165 C58.3249,29.4085 58.3389,29.4105 58.3699,29.3985 C59.6629,28.9015 61.8689,29.7645 62.8339,30.2265 C62.5579,29.6135 61.4479,28.8925 60.2049,28.6025 C61.3539,28.1855 62.5299,27.8895 63.6899,27.7465 C61.7319,27.0255 53.5119,28.8835 50.2139,35.8645 C50.2149,35.8235 50.2149,35.7855 50.2159,35.7435 C50.2179,35.4315 50.2179,35.0865 50.2189,34.7355 C50.2639,32.7545 51.9109,30.8095 53.1679,30.3835 C52.3909,30.1335 51.1009,30.6685 50.2089,31.7465 C50.2079,31.6285 50.2069,31.5085 50.2049,31.3895 C50.2689,30.0135 52.2039,28.2315 52.6519,27.7305 C52.0079,27.7695 50.9209,28.3785 50.1779,29.2035 C50.1779,29.1965 50.1779,29.1905 50.1779,29.1845 C50.2149,27.8645 51.6119,25.9975 52.2639,25.3085 C51.4779,25.4665 50.6969,26.0945 50.1289,26.8435 C50.1289,26.8165 50.1279,26.7915 50.1269,26.7655 C50.1279,26.7365 50.1339,26.7235 50.1339,26.6915 C50.1339,25.7035 51.0709,24.5395 51.5239,23.2525 C51.1059,23.4955 50.5079,24.0545 50.0599,24.7265 C50.0019,23.2385 49.8039,22.2165 49.7069,22.0005 C49.5949,22.2185 49.3769,23.2335 49.3169,24.7165 C48.8699,24.0495 48.2759,23.4945 47.8599,23.2525 C48.3129,24.5395 49.2499,25.7035 49.2499,26.6915 C49.2499,26.6965 49.2509,26.6985 49.2509,26.7035 C49.2499,26.7465 49.2489,26.7895 49.2469,26.8345 C48.6799,26.0895 47.9019,25.4655 47.1199,25.3085 C47.7629,25.9885 49.1269,27.8125 49.1989,29.1285 C49.1989,29.1515 49.1989,29.1735 49.1979,29.1965 C48.4549,28.3755 47.3729,27.7695 46.7319,27.7305 C47.1759,28.2265 49.0719,29.9775 49.1719,31.3475 C49.1699,31.4775 49.1679,31.6095 49.1679,31.7385 C48.2759,30.6655 46.9899,30.1335 46.2149,30.3835 C47.4579,30.8035 49.0729,32.7065 49.1569,34.6605 C49.1579,35.0405 49.1589,35.4075 49.1609,35.7435 C49.1609,35.7805 49.1619,35.8125 49.1619,35.8485 C45.8589,28.8805 37.6499,27.0255 35.6939,27.7465 C36.8549,27.8895 38.0289,28.1855 39.1789,28.6025 C37.9359,28.8925 36.8259,29.6135 36.5499,30.2265 C37.5149,29.7645 39.7209,28.9015 41.0139,29.3985 C41.0439,29.4105 41.0599,29.4085 41.0859,29.4165 C41.1169,29.4315 41.1469,29.4465 41.1779,29.4625 C39.7179,29.7875 38.2119,30.8205 37.9769,31.6335 C38.7859,31.0815 41.3839,30.0035 42.8069,30.4015 L42.8089,30.4015 C42.9599,30.4975 43.1109,30.5925 43.2579,30.6925 C41.2569,30.7955 39.8099,32.1205 39.7209,32.8085 C40.7179,31.9895 43.3129,31.3555 44.8559,31.9235 C44.9229,31.9815 44.9909,32.0395 45.0579,32.0985 C43.1139,31.9485 41.4069,33.1695 41.3839,34.1765 C42.0429,33.4865 44.7399,32.3165 46.5929,33.6745 C46.6219,33.7085 46.6459,33.7435 46.6729,33.7775 C45.6449,33.5835 44.2589,33.7455 43.2139,34.8635 C37.6189,34.3385 33.1559,38.6405 32.9999,40.8965 C33.4909,40.1895 34.2729,39.3145 35.2849,38.4935 C34.9489,39.6905 35.1939,40.7585 35.4469,41.2335 C35.5629,40.3545 35.8599,38.2375 36.9219,37.3595 C37.0879,37.2635 37.2579,37.1695 37.4309,37.0795 C36.8669,38.2035 36.6919,39.6845 37.2759,40.8965 C37.4789,39.1425 38.1919,36.7885 39.3729,36.2885 C39.5549,36.2335 39.7409,36.1845 39.9279,36.1395 C38.9479,37.2645 38.4659,38.7885 39.0229,40.2475 C39.4919,38.0495 40.7809,35.9725 42.2699,35.8925 L42.2719,35.8915 C40.8849,36.9825 40.4169,38.9415 40.7809,39.7955 C41.3859,37.9665 43.3149,35.8085 44.5539,36.1865 L44.5579,36.1875 C44.5629,36.1885 44.5679,36.1905 44.5739,36.1915 C43.3389,36.7335 42.1539,38.2955 42.8419,39.9035 C43.2269,37.9525 44.9379,36.6655 46.7859,37.0385 C47.2529,37.2745 47.7259,37.5525 48.2029,37.8715 C42.2509,38.0335 38.3679,45.2355 39.7389,49.5365 C39.8639,48.6535 40.0499,47.7455 40.2959,46.8495 C40.7399,47.9615 41.6379,48.9335 42.1359,48.9075 C41.4599,47.9035 40.5649,46.0645 40.8739,45.1015 C40.9139,44.9985 40.9489,44.8935 40.9909,44.7925 C41.3459,45.9065 42.1429,47.0535 43.2399,47.4765 C42.8009,46.8365 41.3679,44.0065 41.8249,43.1025 C41.8819,43.0045 41.9419,42.9095 42.0019,42.8135 C42.0509,44.2935 43.1759,45.7285 44.1069,45.9265 C43.1369,44.6985 42.5499,42.2325 43.1409,41.3075 C43.1919,41.2515 43.2479,41.1995 43.3009,41.1455 C43.1869,42.4375 43.6749,44.0565 45.0989,44.5305 C44.2079,43.1015 43.9479,40.5385 44.7849,39.9505 C44.8449,39.9135 44.9049,39.8745 44.9659,39.8395 C44.6349,41.1135 45.0519,42.8185 46.5289,43.4845 C45.3729,40.8575 46.0289,39.3315 46.8769,39.0985 C46.8959,39.0935 46.9029,39.0835 46.9199,39.0775 C47.5459,38.9395 48.2239,38.8845 48.9479,38.9135 L48.4369,39.4255 C48.2919,39.5705 48.1959,39.7575 48.1619,39.9595 L47.7599,42.3595 C47.7329,42.5175 47.7849,42.6775 47.8969,42.7915 L48.7049,43.5975 L48.7059,43.5975 L48.7059,50.4155 C48.8739,50.4115 49.0339,50.4005 49.2069,50.4005 C49.7099,50.4005 50.1979,50.4225 50.6779,50.4575 L50.6779,43.5975 L50.6789,43.5975 L51.4859,42.7905 C51.5989,42.6775 51.6509,42.5175 51.6249,42.3605 L51.2239,39.9615 C51.1909,39.7575 51.0939,39.5705 50.9489,39.4255 L50.4369,38.9135 C51.1609,38.8855 51.8379,38.9395 52.4629,39.0775 C52.4799,39.0835 52.4889,39.0935 52.5059,39.0985 C53.3549,39.3315 54.0109,40.8575 52.8549,43.4845 C54.3319,42.8185 54.7489,41.1135 54.4179,39.8395 C54.4789,39.8745 54.5389,39.9135 54.5989,39.9505 C55.4359,40.5385 55.1759,43.1015 54.2849,44.5305 C55.7089,44.0565 56.1969,42.4375 56.0829,41.1455 C56.1359,41.1995 56.1919,41.2515 56.2429,41.3075 C56.8339,42.2315 56.2469,44.6985 55.2769,45.9265 C56.2079,45.7285 57.3329,44.2935 57.3809,42.8135 C57.4409,42.9095 57.5009,43.0045 57.5589,43.1025 C58.0159,44.0065 56.5839,46.8365 56.1429,47.4765 C57.2419,47.0535 58.0379,45.9065 58.3919,44.7925 C58.4339,44.8935 58.4699,44.9985 58.5099,45.1015 C58.8189,46.0645 57.9229,47.9035 57.2479,48.9075 C57.7459,48.9335 58.6429,47.9615 59.0869,46.8495 C59.3339,47.7455 59.5189,48.6535 59.6449,49.5365 C61.0159,45.2355 57.1329,38.0335 51.1809,37.8715 C51.6589,37.5525 52.1309,37.2745 52.5979,37.0385 C54.4459,36.6655 56.1569,37.9525 56.5429,39.9035 C57.2289,38.2955 56.0439,36.7335 54.8099,36.1915 C54.8149,36.1905 54.8209,36.1885 54.8269,36.1875 C54.8269,36.1875 54.8289,36.1875 54.8299,36.1865 C56.0679,35.8085 57.9979,37.9665 58.6019,39.7955 C58.9669,38.9415 58.4989,36.9825 57.1109,35.8915 L57.1139,35.8925 C58.6019,35.9725 59.8909,38.0495 60.3609,40.2475 C60.9179,38.7885 60.4359,37.2645 59.4559,36.1395 C59.6429,36.1845 59.8289,36.2335 60.0099,36.2885 C61.1909,36.7885 61.9059,39.1425 62.1079,40.8965 C62.6919,39.6845 62.5169,38.2035 61.9529,37.0795 C62.1259,37.1695 62.2949,37.2635 62.4609,37.3595 C63.5239,38.2375 63.8209,40.3545 63.9369,41.2335 C64.1899,40.7585 64.4349,39.6905 64.0989,38.4935 C65.1109,39.3145 65.8919,40.1895 66.3829,40.8965" id="path-1"></path>
    </defs>
    <g id="4.-Desktop-Designs" stroke="none" stroke-width="1" fill="none" fill-rule="evenodd">
        <g id="9.0-Desktop-Location,-Things-to-do" transform="translate(-806.000000, -2710.000000)">
            <g id="02_Map" transform="translate(0.000000, 2368.000000)">
                <g id="Resort" transform="translate(800.000000, 336.000000)">
                    <circle id="Oval" fill="#FFFFFF" cx="50" cy="50" r="44"></circle>
                    <g id="Elements/Brand/S-Tree">
                        <mask id="mask-2" fill="white">
                            <use xlink:href="#path-1"></use>
                        </mask>
                        <use id="Fill-1" fill="#425C58" fill-rule="evenodd" xlink:href="#path-1"></use>
                        <g id="Elements/Colors/Primary/Havana" mask="url(#mask-2)">
                            <rect id="Base" fill="#455D58" fill-rule="evenodd" x="0" y="0" width="100" height="100"></rect>
                            <rect id="Border" stroke="#455D58" stroke-width="1" x="0.5" y="0.5" width="99" height="99"></rect>
                        </g>
                    </g>
                </g>
            </g>
        </g>
    </g>
</svg>